# xmcd CD database file
#
# Track frame offsets:
#	150
#	11453
#	24664
#	37323
#	48222
#	57547
#	66965
#	79458
#	92810
#	111797
#	123888
#	132421
#	141702
#	153974
#	165199
#	179016
#	190451
#	199036
#	210960
#	221136
#	229316
#	240292
#	249054
#	259772
#	271429
#
# Disc length: 3829 seconds
#
# Revision: 0
# Processed by: cddbd v1.5.1PL2 Copyright (c) Steve Scherf et al.
# Submitted via: CDex 1.40Beta9
#
DISCID=6e0ef319
DTITLE=Raymond Rouleau - Le chauffeur de taxi
DYEAR=2005
DGENRE=Country
TTITLE0=Le ciel a pris ma fiancée
TTITLE1=Le chauffeur de taxi
TTITLE2=Diane ma fiancée
TTITLE3=Loulou
TTITLE4=Oh! Belle-maman
TTITLE5=Les larmes de Ste-Anne
TTITLE6=Steel Guitar Rag
TTITLE7=Comme l'oiseau
TTITLE8=Mille et une caresses
TTITLE9=Mon fils appelle un autre homme papa
TTITLE10=Hello trouble
TTITLE11=De Montréal à Gaspé
TTITLE12=Lina
TTITLE13=Un bonheur impossible sans toi
TTITLE14=Pourquoi chérie
TTITLE15=Un soir au bord de la mer
TTITLE16=Apple Jack
TTITLE17=Le coin de Mexico
TTITLE18=Mon coeur bat de joie
TTITLE19=Tu refuses mon coeur
TTITLE20=Le matador
TTITLE21=L'anneau de feu
TTITLE22=Ma petite japonnaise
TTITLE23=Je t'aime plus fort
TTITLE24=Unis pour la vie
EXTD=YEAR: 2005 ID3G: 2
EXTT0=
EXTT1=
EXTT2=
EXTT3=
EXTT4=
EXTT5=
EXTT6=
EXTT7=
EXTT8=
EXTT9=
EXTT10=
EXTT11=
EXTT12=
EXTT13=
EXTT14=
EXTT15=
EXTT16=
EXTT17=
EXTT18=
EXTT19=
EXTT20=
EXTT21=
EXTT22=
EXTT23=
EXTT24=
PLAYORDER=
